<?xml version="1.0" encoding="utf-8"?>
<!-- Generator: Adobe Illustrator 17.0.0, SVG Export Plug-In . SVG Version: 6.00 Build 0)  -->
<!DOCTYPE svg PUBLIC "-//W3C//DTD SVG 1.1//EN" "http://www.w3.org/Graphics/SVG/1.1/DTD/svg11.dtd">
<svg version="1.1" id="Capa_1" xmlns="http://www.w3.org/2000/svg" xmlns:xlink="http://www.w3.org/1999/xlink" x="0px" y="0px"
	 width="262px" height="32.218px" viewBox="0 0 262 32.218" enable-background="new 0 0 262 32.218" xml:space="preserve">
<path fill-rule="evenodd" clip-rule="evenodd" fill="#1D1D1B" d="M0.098,7.736v2.881h1.443c1.046,0,1.298,0.541,1.298,1.547v7.994
	c0,1.005-0.253,1.545-1.298,1.545H0v2.882h10.684v-2.882h-0.577c-1.037,0-1.29-0.324-1.29-0.825v-7.2
	c0-1.695,0.641-3.242,2.589-3.242c2.056,0,2.272,1.299,2.272,3.098v6.623c0,1.113-0.251,1.545-1.298,1.545h-0.504v2.882h9.539
	v-2.882h-0.469c-1.118,0-1.298-0.143-1.298-0.825v-7.741c0-1.582,0.649-2.7,2.597-2.7c1.659,0,2.273,1.835,2.273,3.098v6.623
	c0,1.005-0.253,1.545-1.298,1.545h-0.541v2.882H33.01v-2.882h-1.226c-1.046,0-1.298-0.54-1.298-1.545v-7.67
	c0-3.382-1.767-5.292-5.465-5.292c-2.379,0-4.437,1.226-5.698,3.206c-0.83-2.16-2.624-3.206-4.888-3.206
	c-2.668,0-4.58,1.191-5.906,3.422H8.458V7.736H0.098z"/>
<path fill-rule="evenodd" clip-rule="evenodd" fill="#1D1D1B" d="M52.586,16.988c0-5.614-3.274-9.793-9.144-9.793
	c-5.149,0-9.107,3.387-9.107,8.967c0,5.542,2.948,8.964,9.107,8.964c3.886,0,8.107-1.872,8.674-6.191h-4.174
	c-0.324,2.12-2.379,3.093-3.634,3.093c-3.021,0-3.597-2.52-3.597-5.039H52.586z M40.782,14.111v-0.937
	c0-1.835,0.975-3.098,2.732-3.098c1.722,0,2.695,1.263,2.695,3.098v0.937H40.782z"/>
<path fill-rule="evenodd" clip-rule="evenodd" fill="#1D1D1B" d="M58.987,1.041c-0.288,2.989-1.218,6.695-4.823,6.695v2.881h2.417
	v9.034c0,3.675,2.046,5.473,5.751,5.473c4.329,0,6.051-1.943,6.051-5.473v-3.206h-2.876v2.813c0,1.655-0.361,2.624-1.732,2.624
	c-0.83,0-1.226-0.612-1.226-1.366v-9.9h4.435V7.737h-4.435V1.041H58.987z"/>
<path fill-rule="evenodd" clip-rule="evenodd" fill="#1D1D1B" d="M71.115,10.617h1.479c1.036,0,1.289,0.541,1.289,1.547v7.994
	c0,1.005-0.253,1.545-1.289,1.545h-1.479v2.882h11.514v-2.882H81.16c-1.046,0-1.298-0.54-1.298-1.545v-6.442
	c0-1.767,1.226-4.176,3.093-4.176c0.469,0,0.793,0.037,1.153,0.396c-1.191,0.213-1.875,0.97-1.875,2.191
	c0,1.659,1.371,2.381,2.876,2.381c1.696,0,2.885-1.659,2.885-3.206c0-2.375-1.875-4.106-4.102-4.106
	c-2.12,0-3.489,1.695-4.211,3.422h-0.072V7.737h-8.493V10.617z"/>
<path fill-rule="evenodd" clip-rule="evenodd" fill="#1D1D1B" d="M98.544,7.196c-5.357,0-9.288,3.204-9.288,8.967
	c0,5.756,3.931,8.962,9.288,8.962c5.365,0,9.288-3.206,9.288-8.962C107.832,10.4,103.909,7.196,98.544,7.196 M98.544,10.076
	c2.164,0,2.921,1.835,2.921,6.086c0,4.247-0.757,6.082-2.921,6.082s-2.913-1.835-2.913-6.082
	C95.631,11.911,96.381,10.076,98.544,10.076"/>
<path fill-rule="evenodd" clip-rule="evenodd" fill="#1D1D1B" d="M119.742,10.544c2.011,0,2.84,2.231,2.84,5.763
	c0,3.525-0.83,5.721-2.84,5.721c-2.011,0-2.84-2.196-2.84-5.721C116.902,12.776,117.732,10.544,119.742,10.544 M116.613,7.736
	h-8.385v2.881h1.397c1.047,0,1.298,0.541,1.298,1.547v15.625c0,1.007-0.251,1.547-1.298,1.547h-1.361v2.882h11.406v-2.882h-1.479
	c-1.036,0-1.289-0.54-1.289-1.547v-5.004l0.072-0.073c0.757,1.584,2.768,2.413,4.923,2.413c5.437,0,7.059-4.572,7.059-8.964
	c0-4.395-1.622-8.967-7.059-8.967c-2.299,0-4.166,0.973-5.212,3.169h-0.073V7.736z"/>
<path fill-rule="evenodd" clip-rule="evenodd" fill="#1D1D1B" d="M140.544,7.196c-5.365,0-9.288,3.204-9.288,8.967
	c0,5.756,3.923,8.962,9.288,8.962c5.357,0,9.288-3.206,9.288-8.962C149.832,10.4,145.901,7.196,140.544,7.196 M140.544,10.076
	c2.164,0,2.913,1.835,2.913,6.086c0,4.247-0.749,6.082-2.913,6.082c-2.164,0-2.921-1.835-2.921-6.082
	C137.623,11.911,138.38,10.076,140.544,10.076"/>
<path fill-rule="evenodd" clip-rule="evenodd" fill="#1D1D1B" d="M160.543,0.721h-8.927v2.877h1.659c1.046,0,1.298,0.54,1.298,1.55
	v15.008c0,1.005-0.253,1.546-1.298,1.546h-1.551v2.881h11.596v-2.881h-1.479c-1.046,0-1.298-0.541-1.298-1.546V0.721z"/>
<path fill-rule="evenodd" clip-rule="evenodd" fill="#1D1D1B" d="M174.538,7.736h-8.927v2.881h1.659
	c1.046,0,1.297,0.541,1.297,1.547v7.994c0,1.005-0.251,1.547-1.297,1.547h-1.551v2.881h11.596v-2.881h-1.481
	c-1.046,0-1.297-0.541-1.297-1.547V7.736z M171.418,0c-1.767,0-3.138,1.366-3.138,3.129c0,1.767,1.371,3.133,3.138,3.133
	c1.759,0,3.121-1.366,3.121-3.133C174.538,1.366,173.177,0,171.418,0"/>
<path fill-rule="evenodd" clip-rule="evenodd" fill="#1D1D1B" d="M184.041,1.041c-0.288,2.989-1.226,6.695-4.823,6.695v2.881h2.407
	v9.034c0,3.675,2.056,5.473,5.761,5.473c4.319,0,6.051-1.943,6.051-5.473v-3.206h-2.885v2.813c0,1.655-0.361,2.624-1.732,2.624
	c-0.82,0-1.216-0.612-1.216-1.366v-9.9h4.427V7.737h-4.427V1.041H184.041z"/>
<path fill-rule="evenodd" clip-rule="evenodd" fill="#1D1D1B" d="M206.169,18.719c0,1.51-0.541,3.021-2.597,3.021
	c-1.11,0-2.048-0.541-2.048-2.015c0-2.231,2.913-2.447,4.645-3.454V18.719z M214.013,18.43v0.83c0,2.011-0.396,2.479-1.191,2.479
	c-0.569,0-0.677-0.396-0.677-1.439v-6.696c0-5.255-2.66-6.41-7.601-6.41c-2.913,0-8.35,0.577-8.35,4.572
	c0,1.695,1.443,2.668,3.138,2.668c1.443,0,2.84-0.685,2.84-2.271c0-1.258-1.181-1.835-2.263-1.98v-0.071
	c0.867-0.536,1.867-0.681,2.84-0.681c1.975,0,3.489,0.789,3.489,3.166c0,4.715-10.694,0.72-10.694,7.523
	c0,3.675,2.128,5.005,5.555,5.005c2.336,0,4.058-0.794,5.537-2.557c0.577,1.727,2.272,2.557,3.994,2.557
	c3.995,0,5.365-1.118,5.365-4.715v-1.98H214.013z"/>
<path fill-rule="evenodd" clip-rule="evenodd" fill="#1D1D1B" d="M217.07,7.736v2.881h1.479c1.036,0,1.289,0.541,1.289,1.547v7.994
	c0,1.005-0.253,1.545-1.289,1.545h-1.443v2.882h10.874v-2.882h-0.865c-1.046,0-1.289-0.54-1.289-1.545v-6.66
	c0-1.514,1.036-3.061,2.686-3.061c2.454,0,2.777,1.439,2.777,3.53v6.191c0,1.005-0.251,1.545-1.298,1.545h-0.757v2.882h10.694
	v-2.882h-1.369c-1.047,0-1.29-0.54-1.29-1.545v-6.84c0-3.741-1.371-6.122-5.473-6.122c-2.922,0-4.608,1.01-6.186,3.314h-0.071V7.736
	H217.07z"/>
<path fill-rule="evenodd" clip-rule="evenodd" fill="#1D1D1B" d="M252.173,18.719c0,1.51-0.541,3.021-2.587,3.021
	c-1.12,0-2.048-0.541-2.048-2.015c0-2.231,2.903-2.447,4.635-3.454V18.719z M260.017,18.43v0.83c0,2.011-0.396,2.479-1.181,2.479
	c-0.577,0-0.686-0.396-0.686-1.439v-6.696c0-5.255-2.658-6.41-7.601-6.41c-2.911,0-8.35,0.577-8.35,4.572
	c0,1.695,1.443,2.668,3.138,2.668c1.443,0,2.84-0.685,2.84-2.271c0-1.258-1.181-1.835-2.263-1.98v-0.071
	c0.867-0.536,1.867-0.681,2.842-0.681c1.974,0,3.488,0.789,3.488,3.166c0,4.715-10.694,0.72-10.694,7.523
	c0,3.675,2.13,5.005,5.555,5.005c2.336,0,4.058-0.794,5.537-2.557c0.577,1.727,2.272,2.557,4.003,2.557
	c3.986,0,5.355-1.118,5.355-4.715v-1.98H260.017z"/>
</svg>
